<svg width="27" height="26" viewBox="0 0 27 26" fill="none" xmlns="http://www.w3.org/2000/svg">
<path fill-rule="evenodd" clip-rule="evenodd" d="M19.3538 15.5805C19.0309 15.4191 17.4482 14.6413 17.1535 14.5329C16.8589 14.4257 16.6444 14.3726 16.4288 14.6954C16.2143 15.0161 15.5979 15.7419 15.4104 15.9564C15.2219 16.172 15.0345 16.198 14.7128 16.0377C14.391 15.8752 13.3532 15.5361 12.1236 14.4398C11.167 13.5861 10.5203 12.532 10.3329 12.2092C10.1455 11.8874 10.3123 11.713 10.4737 11.5527C10.6189 11.4086 10.7955 11.1768 10.9569 10.9894C11.1183 10.8009 11.1714 10.6665 11.2786 10.4509C11.387 10.2364 11.3328 10.049 11.2515 9.88761C11.1714 9.7262 10.5279 8.14128 10.2592 7.4967C9.99812 6.86945 9.7327 6.95503 9.53554 6.9442C9.34704 6.93553 9.13254 6.93337 8.91804 6.93337C8.70354 6.93337 8.3547 7.01353 8.06004 7.33637C7.76429 7.65812 6.93337 8.43703 6.93337 10.0219C6.93337 11.6058 8.08604 13.1365 8.24745 13.3521C8.40887 13.5666 10.517 16.8188 13.7464 18.213C14.5156 18.5445 15.1147 18.7428 15.5816 18.8901C16.3529 19.136 17.0549 19.1013 17.6096 19.0179C18.2271 18.9258 19.5141 18.239 19.7828 17.4872C20.0504 16.7353 20.0504 16.0908 19.9702 15.9564C19.89 15.8221 19.6755 15.7419 19.3527 15.5805H19.3538ZM13.4799 23.6004H13.4756C11.5575 23.6008 9.67461 23.0851 8.02429 22.1076L7.63429 21.8758L3.58046 22.9396L4.66271 18.9876L4.40813 18.5824C3.33578 16.8755 2.76828 14.8999 2.77121 12.8841C2.77338 6.97995 7.57687 2.17646 13.4843 2.17646C16.3443 2.17646 19.0331 3.29229 21.0546 5.31595C22.0517 6.30891 22.842 7.48973 23.3797 8.79009C23.9175 10.0904 24.1921 11.4845 24.1876 12.8917C24.1854 18.7958 19.3819 23.6004 13.4799 23.6004ZM22.5929 3.7787C21.3993 2.57721 19.9791 1.62454 18.4146 0.97591C16.8501 0.32728 15.1725 -0.00441593 13.4789 4.43923e-05C6.37871 4.43923e-05 0.598049 5.77962 0.595882 12.883C0.592592 15.1437 1.18562 17.3652 2.31513 19.3234L0.487549 26L7.31687 24.2082C9.20607 25.2375 11.3231 25.7768 13.4745 25.7768H13.4799C20.5801 25.7768 26.3608 19.9973 26.3629 12.8928C26.3682 11.1998 26.0377 9.52264 25.3906 7.95823C24.7435 6.39383 23.7926 4.97326 22.5929 3.7787Z" fill="white"/>
</svg>
